<?xml version="1.0" encoding="UTF-8"?>
<svg id="Layer_2" data-name="Layer 2" xmlns="http://www.w3.org/2000/svg" viewBox="0 0 139.41 138.46">
  <defs>
    <style>
      .cls-1 {
        fill: #fff;
      }
    </style>
  </defs>
  <g id="Layer_1-2" data-name="Layer 1">
    <path class="cls-1" d="M69.7,0C31.27,0,0,31.28,0,69.72c0,34.5,25.2,63.24,58.18,68.74l.11-.42,4.19-15.83,.08-.32c-14.04-3.25-24.53-15.83-24.53-30.85,0-17.45,14.2-31.65,31.67-31.65s31.65,14.2,31.65,31.65c0,15-10.49,27.6-24.51,30.85l.08,.32,4.18,15.83,.11,.42c32.98-5.49,58.19-34.24,58.19-68.74C139.41,31.28,108.14,0,69.7,0Zm48.35,91.38c.02-.11,.02-.22,.02-.34,0-26.67-21.69-48.36-48.36-48.36s-48.38,21.69-48.38,48.36v.3c-2.96-6.61-4.61-13.93-4.61-21.63,0-29.23,23.77-53.01,52.99-53.01s52.99,23.77,52.99,53.01c0,7.7-1.65,15.03-4.64,21.66Z"/>
  </g>
</svg>