<?xml version="1.0" encoding="UTF-8"?>
<svg id="Layer_2" data-name="Layer 2" xmlns="http://www.w3.org/2000/svg" viewBox="0 0 408.76 109.38">
  <defs>
    <style>
      .cls-1 {
        fill: #231f20;
      }
    </style>
  </defs>
  <g id="Layer_1-2" data-name="Layer 1">
    <g>
      <path class="cls-1" d="M59.42,.55V52.6l.57,23.01L19.8,.55H0V109.38H17.71V57.33l-.55-23.01L57.33,109.38h19.82V.55h-17.73Z"/>
      <path class="cls-1" d="M156.11,16.88V.55H91.37V109.38h64.73v-16.33h-46.04v-31.1h39.07v-16.19h-39.07V16.88h46.04Z"/>
      <path class="cls-1" d="M222.93,53.29c7.11-3.63,12.14-9.9,12.14-20.64v-2.8c0-23.85-17.01-29.3-34.32-29.3h-33.33V109.38h34.74c17.86,0,35.7-5.87,35.7-30.56v-2.79c0-12.41-6.42-19.1-14.92-22.73Zm-36.83-36.41h14.65c7.83,0,15.35,2.93,15.35,13.38v1.81c0,10.47-7.52,13.4-15.35,13.4h-14.65V16.88Zm32.8,61.38c0,11.15-7.96,14.78-16.06,14.78h-16.74v-31.24h16.74c8.1,0,16.06,3.63,16.06,14.92v1.54Z"/>
      <path class="cls-1" d="M321.14,35.99v-2.79c0-27.63-19.38-32.65-36.41-32.65h-34.03V109.38h18.68v-40.61h15.91l15.62,40.61h20.22l-17.71-43.52c9.9-3.9,17.71-12.43,17.71-29.86Zm-18.96-.55c0,14.37-9.5,17.01-16.74,17.01h-16.06V16.88h16.06c7.24,0,16.74,2.64,16.74,17.01v1.54Z"/>
      <path class="cls-1" d="M380.18,0h-25.81l-28.6,109.38h20.22l6.01-24.84h30.69l6,24.84h20.08L380.18,0Zm-24.27,68.22l11.44-46.88,11.29,46.88h-22.73Z"/>
    </g>
  </g>
</svg>